<svg width="43" height="42" viewBox="0 0 43 42" fill="none" xmlns="http://www.w3.org/2000/svg">
<rect x="0.84375" width="42" height="42" rx="6" fill="#F0B90B"/>
<path d="M22.3937 13.4536C20.725 13.4508 18.6343 13.9782 16.5718 15.0516C14.5126 16.125 12.8804 17.5313 11.9223 18.9047C10.9637 20.2735 10.7045 21.5485 11.1761 22.4578C11.6481 23.3625 12.8415 23.8828 14.5145 23.8828C16.1875 23.8875 18.2781 23.3578 20.3359 22.2891C22.3984 21.2157 24.0297 19.8047 24.9859 18.436C25.9468 17.0672 26.2 15.7922 25.7312 14.8828C25.2578 13.9782 24.0672 13.4536 22.3937 13.4536ZM26.7015 16.7485C26.5375 17.4657 26.1812 18.2016 25.6797 18.9188C24.6203 20.4328 22.8906 21.9094 20.725 23.0344C18.5593 24.1641 16.3609 24.7313 14.514 24.7313C13.6422 24.7313 12.834 24.6 12.1529 24.3235L12.6493 25.2797C13.1218 26.1891 14.312 26.7094 15.9859 26.7094C17.6593 26.7094 19.75 26.1844 21.8078 25.111C23.8703 24.0422 25.5015 22.6313 26.4578 21.2578C27.414 19.8891 27.6765 18.6141 27.2031 17.7094L26.7015 16.7485ZM28.0515 17.536C28.5765 18.7875 28.1547 20.311 27.1515 21.7407C26.2656 23.011 24.9109 24.2438 23.2328 25.275C23.7531 25.3313 24.2968 25.3594 24.85 25.3594C27.1703 25.3594 29.2703 24.8625 30.7515 24.0891C32.2375 23.3157 33.0531 22.3032 33.0531 21.2813C33.0531 20.2594 32.2375 19.2469 30.7515 18.4735C29.9968 18.0797 29.0781 17.7563 28.0515 17.536ZM33.0531 23.386C32.575 23.9438 31.9187 24.436 31.1453 24.8391C29.5047 25.6922 27.2922 26.2032 24.85 26.2032C23.8562 26.2032 22.9 26.1188 22.0047 25.9594C20.9172 26.5078 19.825 26.9157 18.775 27.1828C18.8312 27.2157 18.8875 27.2438 18.9484 27.2766C20.4297 28.05 22.5297 28.5469 24.85 28.5469C27.1703 28.5469 29.2703 28.05 30.7515 27.2766C32.2375 26.5032 33.0531 25.4907 33.0531 24.4688V23.386Z" fill="white"/>
</svg>
