<svg width="4" height="18" viewBox="0 0 4 18" fill="none" xmlns="http://www.w3.org/2000/svg">
<g id="Group">
<path id="Vector" d="M1.9375 2.875C2.45527 2.875 2.875 2.45527 2.875 1.9375C2.875 1.41973 2.45527 1 1.9375 1C1.41973 1 1 1.41973 1 1.9375C1 2.45527 1.41973 2.875 1.9375 2.875Z" stroke="#797986" stroke-width="1.875" stroke-linecap="round" stroke-linejoin="round"/>
<path id="Vector_2" d="M1.9375 9.75C2.45527 9.75 2.875 9.33027 2.875 8.8125C2.875 8.29473 2.45527 7.875 1.9375 7.875C1.41973 7.875 1 8.29473 1 8.8125C1 9.33027 1.41973 9.75 1.9375 9.75Z" stroke="#797986" stroke-width="1.875" stroke-linecap="round" stroke-linejoin="round"/>
<path id="Vector_3" d="M1.9375 16.625C2.45527 16.625 2.875 16.2053 2.875 15.6875C2.875 15.1697 2.45527 14.75 1.9375 14.75C1.41973 14.75 1 15.1697 1 15.6875C1 16.2053 1.41973 16.625 1.9375 16.625Z" stroke="#797986" stroke-width="1.875" stroke-linecap="round" stroke-linejoin="round"/>
</g>
</svg>
