<svg width="20" height="20" viewBox="0 0 20 20" fill="none" xmlns="http://www.w3.org/2000/svg">
<path fill-rule="evenodd" clip-rule="evenodd" d="M11.2981 4.61162C10.9489 4.27651 10.4837 4.08938 9.99975 4.08938C9.51579 4.08938 9.05058 4.27651 8.70142 4.61162L4.84642 8.31162C4.75192 8.40225 4.68836 8.52034 4.66475 8.64912C4.20307 11.1671 4.16898 13.7448 4.56392 16.2741L4.65725 16.875H7.13809V11.6991C7.13809 11.5334 7.20393 11.3744 7.32114 11.2572C7.43835 11.14 7.59732 11.0741 7.76309 11.0741H12.2364C12.4022 11.0741 12.5611 11.14 12.6784 11.2572C12.7956 11.3744 12.8614 11.5334 12.8614 11.6991V16.875H15.3423L15.4356 16.275C15.8311 13.7452 15.7972 11.1668 15.3356 8.64829C15.3116 8.5197 15.2477 8.40192 15.1531 8.31162L11.2981 4.61162ZM7.83642 3.70996C8.4183 3.15176 9.19342 2.84009 9.99975 2.84009C10.8061 2.84009 11.5812 3.15176 12.1631 3.70996L16.0189 7.40996C16.3023 7.68162 16.4939 8.03662 16.5648 8.42329C17.0514 11.0797 17.0872 13.7991 16.6706 16.4675L16.5206 17.4316C16.4905 17.6248 16.3924 17.801 16.2438 17.9281C16.0953 18.0553 15.9061 18.1251 15.7106 18.125H12.2364C12.0707 18.125 11.9117 18.0591 11.7945 17.9419C11.6773 17.8247 11.6114 17.6657 11.6114 17.5V12.3241H8.38809V17.5C8.38809 17.6657 8.32224 17.8247 8.20503 17.9419C8.08782 18.0591 7.92885 18.125 7.76309 18.125H4.28892C4.09337 18.1251 3.90423 18.0553 3.75568 17.9281C3.60712 17.801 3.50896 17.6248 3.47892 17.4316L3.32892 16.4675C2.91229 13.7991 2.94807 11.0797 3.43475 8.42329C3.50559 8.03662 3.69725 7.68162 3.98059 7.40912L7.83642 3.70996Z" fill="#94949E"/>
</svg>
