<svg width="142" height="142" viewBox="0 0 142 142" fill="none" xmlns="http://www.w3.org/2000/svg">
<g filter="url(#filter0_d_24_211)">
<circle cx="71" cy="61" r="31" fill="#FFE749"/>
</g>
<path d="M74.2547 59.39L61.083 72.55L59.4497 70.9167L72.6097 57.745L74.2547 59.39ZM79.4814 56.0184L80.1697 55.33L79.248 54.4084L79.9947 53.6617L78.338 52.005L77.5914 52.7517L76.6697 51.83L75.9814 52.5184C73.9514 50.8617 71.6647 49.5317 69.2147 48.5984L68.2464 50.6867C70.288 51.76 72.1664 53.055 73.9164 54.5834L73.333 55.1667L76.833 58.6667L77.4164 58.0834C78.9447 59.8334 80.2397 61.7117 81.313 63.7534L83.4014 62.785C82.468 60.335 81.138 58.0484 79.4814 56.0184Z" fill="#21242C"/>
<defs>
<filter id="filter0_d_24_211" x="0" y="0" width="142" height="142" filterUnits="userSpaceOnUse" color-interpolation-filters="sRGB">
<feFlood flood-opacity="0" result="BackgroundImageFix"/>
<feColorMatrix in="SourceAlpha" type="matrix" values="0 0 0 0 0 0 0 0 0 0 0 0 0 0 0 0 0 0 127 0" result="hardAlpha"/>
<feOffset dy="10"/>
<feGaussianBlur stdDeviation="20"/>
<feComposite in2="hardAlpha" operator="out"/>
<feColorMatrix type="matrix" values="0 0 0 0 1 0 0 0 0 0.905882 0 0 0 0 0.286275 0 0 0 0.05 0"/>
<feBlend mode="normal" in2="BackgroundImageFix" result="effect1_dropShadow_24_211"/>
<feBlend mode="normal" in="SourceGraphic" in2="effect1_dropShadow_24_211" result="shape"/>
</filter>
</defs>
</svg>
