<svg width="20" height="21" viewBox="0 0 20 21" fill="none" xmlns="http://www.w3.org/2000/svg">
<g clip-path="url(#clip0_24_230)">
<path d="M8.5715 19.4287H11.4286M0.714355 8.52868C0.715126 7.16888 1.0394 5.82878 1.66041 4.61907C2.28141 3.40935 3.18131 2.36475 4.28578 1.57153M19.2858 8.52868C19.285 7.16888 18.9607 5.82878 18.3397 4.61907C17.7187 3.40935 16.8188 2.36475 15.7144 1.57153M15.7144 8.71439C15.7144 7.19887 15.1123 5.74542 14.0407 4.67378C12.969 3.60214 11.5156 3.0001 10.0001 3.0001C8.48455 3.0001 7.0311 3.60214 5.95946 4.67378C4.88782 5.74542 4.28578 7.19887 4.28578 8.71439V13.7144C4.28578 14.2827 4.06002 14.8278 3.65816 15.2296C3.25629 15.6315 2.71125 15.8572 2.14293 15.8572H17.8572C17.2889 15.8572 16.7438 15.6315 16.342 15.2296C15.9401 14.8278 15.7144 14.2827 15.7144 13.7144V8.71439Z" stroke="#94949E" stroke-width="1.42857" stroke-linecap="round" stroke-linejoin="round"/>
</g>
<defs>
<clipPath id="clip0_24_230">
<rect width="20" height="20" fill="white" transform="translate(0 0.5)"/>
</clipPath>
</defs>
</svg>
