<svg width="43" height="42" viewBox="0 0 43 42" fill="none" xmlns="http://www.w3.org/2000/svg">
<rect x="0.84375" width="42" height="42" rx="6" fill="#F0B90B"/>
<path d="M25.7499 21C24.7862 21 23.8543 20.5697 23.1249 19.7888C22.4157 19.027 21.9826 18.0113 21.9062 16.9294C21.8246 15.7753 22.1767 14.7141 22.8971 13.9406C23.6176 13.1672 24.6249 12.75 25.7499 12.75C26.867 12.75 27.8771 13.1747 28.5953 13.9462C29.3204 14.7253 29.6734 15.7847 29.5918 16.9289C29.5135 18.0122 29.0809 19.0275 28.3731 19.7883C27.6456 20.5697 26.7142 21 25.7499 21ZM31.9295 29.25H19.5709C19.3722 29.2511 19.1759 29.2065 18.9971 29.1198C18.8183 29.0331 18.6618 28.9065 18.5396 28.7498C18.41 28.58 18.3205 28.383 18.2778 28.1736C18.2351 27.9643 18.2403 27.748 18.2931 27.5409C18.6878 25.9561 19.6656 24.6417 21.1206 23.7403C22.412 22.9406 24.0559 22.5 25.7499 22.5C27.4773 22.5 29.0781 22.9219 30.377 23.7211C31.8353 24.6178 32.8145 25.9397 33.2073 27.5438C33.2594 27.751 33.264 27.9673 33.2208 28.1765C33.1777 28.3857 33.0878 28.5825 32.9579 28.7522C32.8359 28.9082 32.6797 29.0341 32.5014 29.1204C32.3232 29.2067 32.1275 29.251 31.9295 29.25ZM16.8906 21.1875C15.241 21.1875 13.7907 19.6538 13.6562 17.7689C13.5896 16.8033 13.8906 15.9103 14.4999 15.2555C15.1028 14.6072 15.9531 14.25 16.8906 14.25C17.8281 14.25 18.6718 14.6091 19.2779 15.2611C19.892 15.9211 20.192 16.8122 20.1217 17.7698C19.9871 19.6542 18.5373 21.1875 16.8906 21.1875ZM19.9684 22.6617C19.1439 22.2586 18.0737 22.057 16.891 22.057C15.5101 22.057 14.169 22.417 13.1143 23.0705C11.9185 23.8125 11.1142 24.893 10.7893 26.1975C10.7418 26.3851 10.7373 26.5811 10.7762 26.7707C10.8151 26.9603 10.8963 27.1387 11.0139 27.2925C11.1254 27.4357 11.2683 27.5514 11.4315 27.6307C11.5948 27.71 11.7741 27.7508 11.9556 27.75H17.1587C17.2465 27.75 17.3315 27.7192 17.399 27.6629C17.4664 27.6066 17.5119 27.5284 17.5276 27.442C17.5328 27.4125 17.5393 27.383 17.5468 27.3539C17.9443 25.7573 18.8757 24.4083 20.252 23.4248C20.3026 23.3884 20.3433 23.3398 20.3704 23.2836C20.3975 23.2274 20.4102 23.1653 20.4073 23.103C20.4044 23.0407 20.3859 22.9801 20.3536 22.9267C20.3214 22.8733 20.2763 22.8288 20.2224 22.7972C20.1489 22.7541 20.0645 22.7086 19.9684 22.6617Z" fill="white"/>
</svg>
