<svg width="20" height="21" viewBox="0 0 20 21" fill="none" xmlns="http://www.w3.org/2000/svg">
<path fill-rule="evenodd" clip-rule="evenodd" d="M10 7.375C9.1712 7.375 8.37634 7.70424 7.79029 8.29029C7.20424 8.87634 6.875 9.6712 6.875 10.5C6.875 11.3288 7.20424 12.1237 7.79029 12.7097C8.37634 13.2958 9.1712 13.625 10 13.625C10.8288 13.625 11.6237 13.2958 12.2097 12.7097C12.7958 12.1237 13.125 11.3288 13.125 10.5C13.125 9.6712 12.7958 8.87634 12.2097 8.29029C11.6237 7.70424 10.8288 7.375 10 7.375ZM8.125 10.5C8.125 10.0027 8.32254 9.52581 8.67417 9.17417C9.02581 8.82254 9.50272 8.625 10 8.625C10.4973 8.625 10.9742 8.82254 11.3258 9.17417C11.6775 9.52581 11.875 10.0027 11.875 10.5C11.875 10.9973 11.6775 11.4742 11.3258 11.8258C10.9742 12.1775 10.4973 12.375 10 12.375C9.50272 12.375 9.02581 12.1775 8.67417 11.8258C8.32254 11.4742 8.125 10.9973 8.125 10.5Z" fill="#94949E"/>
<path fill-rule="evenodd" clip-rule="evenodd" d="M9.97931 1.54175C9.60847 1.54175 9.2993 1.54175 9.04597 1.55841C8.78703 1.5692 8.53164 1.6227 8.29014 1.71675C8.01201 1.83182 7.75928 2.00056 7.54638 2.21332C7.33347 2.42608 7.16457 2.6787 7.0493 2.95675C6.92847 3.24841 6.89597 3.55675 6.88264 3.89175C6.8813 4.01427 6.84887 4.13444 6.78838 4.24099C6.72789 4.34754 6.64132 4.43698 6.5368 4.50091C6.42921 4.55967 6.30844 4.59011 6.18585 4.58938C6.06326 4.58865 5.94286 4.55678 5.83597 4.49675C5.5393 4.34008 5.25597 4.21425 4.94264 4.17258C4.64426 4.13333 4.34107 4.15324 4.05038 4.23117C3.7597 4.30909 3.48721 4.44351 3.24847 4.62675C3.04662 4.78915 2.8729 4.9837 2.7343 5.20258C2.59264 5.41425 2.43764 5.68175 2.25264 6.00258L2.2318 6.03925C2.04597 6.36008 1.8918 6.62758 1.78014 6.85591C1.66347 7.09425 1.5718 7.32925 1.53847 7.58925C1.45897 8.19174 1.62204 8.80114 1.9918 9.28341C2.1843 9.53425 2.43514 9.71675 2.71847 9.89508C2.8241 9.95753 2.91211 10.0458 2.97422 10.1517C3.03632 10.2575 3.07048 10.3774 3.07347 10.5001C3.07048 10.6228 3.03632 10.7427 2.97422 10.8485C2.91211 10.9543 2.8241 11.0426 2.71847 11.1051C2.43514 11.2834 2.18514 11.4659 1.9918 11.7167C1.80857 11.9555 1.67415 12.228 1.59622 12.5187C1.5183 12.8093 1.49839 13.1125 1.53764 13.4109C1.5718 13.6709 1.66264 13.9059 1.7793 14.1442C1.8918 14.3726 2.04597 14.6401 2.2318 14.9609L2.25264 14.9976C2.43764 15.3184 2.59264 15.5859 2.7343 15.7976C2.8818 16.0167 3.04014 16.2142 3.24847 16.3726C3.48715 16.556 3.75961 16.6905 4.0503 16.7686C4.34098 16.8467 4.6442 16.8667 4.94264 16.8276C5.25597 16.7859 5.5393 16.6609 5.83597 16.5034C5.94274 16.4435 6.06299 16.4116 6.18543 16.4109C6.30788 16.4102 6.4285 16.4406 6.53597 16.4992C6.64107 16.5627 6.72818 16.652 6.78901 16.7586C6.84984 16.8652 6.88236 16.9857 6.88347 17.1084C6.89597 17.4434 6.92847 17.7517 7.05014 18.0434C7.16521 18.3215 7.33395 18.5743 7.54671 18.7872C7.75947 19.0001 8.01209 19.169 8.29014 19.2842C8.53181 19.3842 8.7818 19.4234 9.04597 19.4409C9.2993 19.4584 9.60847 19.4584 9.97931 19.4584H10.021C10.3918 19.4584 10.701 19.4584 10.9543 19.4417C11.2193 19.4234 11.4685 19.3842 11.7101 19.2834C11.9883 19.1683 12.241 18.9996 12.4539 18.7868C12.6668 18.5741 12.8357 18.3215 12.951 18.0434C13.0718 17.7517 13.1043 17.4434 13.1176 17.1084C13.1188 16.9858 13.1512 16.8654 13.2117 16.7587C13.2722 16.652 13.3588 16.5624 13.4635 16.4984C13.5711 16.4398 13.6919 16.4095 13.8145 16.4104C13.9371 16.4112 14.0575 16.4433 14.1643 16.5034C14.461 16.6601 14.7443 16.7859 15.0576 16.8267C15.6601 16.9062 16.2695 16.7432 16.7518 16.3734C16.9601 16.2134 17.1185 16.0167 17.266 15.7976C17.4076 15.5859 17.5626 15.3184 17.7476 14.9976L17.7685 14.9609C17.9543 14.6401 18.1085 14.3726 18.2201 14.1442C18.3368 13.9059 18.4285 13.6701 18.4618 13.4109C18.5413 12.8084 18.3782 12.199 18.0085 11.7167C17.816 11.4659 17.5651 11.2834 17.2818 11.1051C17.1762 11.0426 17.0882 10.9543 17.0261 10.8485C16.964 10.7427 16.9298 10.6228 16.9268 10.5001C16.9268 10.2684 17.0535 10.0384 17.2818 9.89508C17.5651 9.71675 17.8151 9.53425 18.0085 9.28341C18.1917 9.04468 18.3261 8.77219 18.4041 8.4815C18.482 8.19082 18.5019 7.88763 18.4626 7.58925C18.423 7.33317 18.3413 7.0854 18.221 6.85591C18.0787 6.57904 17.9278 6.30668 17.7685 6.03925L17.7476 6.00258C17.5954 5.73099 17.4348 5.46419 17.266 5.20258C17.1274 4.98393 16.9537 4.78965 16.7518 4.62758C16.5131 4.4442 16.2407 4.30963 15.95 4.23156C15.6593 4.15349 15.3561 4.13345 15.0576 4.17258C14.7443 4.21425 14.461 4.33925 14.1643 4.49675C14.0575 4.55663 13.9373 4.58842 13.8148 4.58915C13.6924 4.58988 13.5718 4.55952 13.4643 4.50091C13.3595 4.43718 13.2726 4.34783 13.2118 4.24126C13.151 4.1347 13.1183 4.01442 13.1168 3.89175C13.1043 3.55675 13.0718 3.24841 12.9501 2.95675C12.8351 2.67862 12.6663 2.42589 12.4536 2.21299C12.2408 2.00008 11.9882 1.83118 11.7101 1.71591C11.4685 1.61591 11.2185 1.57675 10.9543 1.55925C10.701 1.54175 10.3918 1.54175 10.021 1.54175H9.97931ZM8.76847 2.87091C8.83264 2.84425 8.93014 2.82008 9.13097 2.80591C9.3368 2.79175 9.60347 2.79175 10.0001 2.79175C10.3968 2.79175 10.6635 2.79175 10.8693 2.80591C11.0701 2.82008 11.1676 2.84425 11.2318 2.87091C11.4876 2.97675 11.6901 3.17925 11.796 3.43508C11.8293 3.51508 11.8568 3.64091 11.8676 3.93841C11.8926 4.59841 12.2335 5.23425 12.8385 5.58341C13.4435 5.93341 14.1643 5.91008 14.7485 5.60175C15.0118 5.46258 15.1343 5.42341 15.221 5.41258C15.4948 5.3764 15.7717 5.45044 15.991 5.61841C16.046 5.66091 16.116 5.73341 16.2285 5.90008C16.3443 6.07175 16.4776 6.30258 16.676 6.64591C16.8743 6.98925 17.0068 7.22091 17.0976 7.40591C17.1868 7.58675 17.2143 7.68341 17.2226 7.75258C17.2588 8.02639 17.1848 8.30335 17.0168 8.52258C16.9635 8.59175 16.8685 8.67841 16.6168 8.83675C16.0568 9.18841 15.6768 9.80175 15.6768 10.5001C15.6768 11.1984 16.0568 11.8117 16.6168 12.1634C16.8685 12.3217 16.9635 12.4084 17.0168 12.4776C17.1851 12.6967 17.2585 12.9734 17.2226 13.2476C17.2143 13.3167 17.186 13.4142 17.0976 13.5942C17.0068 13.7801 16.8743 14.0109 16.676 14.3542C16.4776 14.6976 16.3435 14.9284 16.2285 15.1001C16.116 15.2667 16.046 15.3392 15.991 15.3817C15.7717 15.5497 15.4948 15.6238 15.221 15.5876C15.1343 15.5767 15.0126 15.5376 14.7485 15.3984C14.1651 15.0901 13.4435 15.0667 12.8385 15.4159C12.2335 15.7659 11.8926 16.4017 11.8676 17.0617C11.8568 17.3592 11.8293 17.4851 11.796 17.5651C11.7436 17.6916 11.6668 17.8065 11.57 17.9033C11.4732 18.0001 11.3583 18.0769 11.2318 18.1292C11.1676 18.1559 11.0701 18.1801 10.8693 18.1942C10.6635 18.2084 10.3968 18.2084 10.0001 18.2084C9.60347 18.2084 9.3368 18.2084 9.13097 18.1942C8.93014 18.1801 8.83264 18.1559 8.76847 18.1292C8.64197 18.0769 8.52704 18.0001 8.43023 17.9033C8.33343 17.8065 8.25666 17.6916 8.20431 17.5651C8.17097 17.4851 8.14347 17.3592 8.13264 17.0617C8.10764 16.4017 7.7668 15.7659 7.1618 15.4167C6.5568 15.0667 5.83597 15.0901 5.2518 15.3984C4.98847 15.5376 4.86597 15.5767 4.7793 15.5876C4.5055 15.6238 4.22854 15.5497 4.0093 15.3817C3.9543 15.3392 3.8843 15.2667 3.7718 15.1001C3.61506 14.8561 3.46583 14.6074 3.3243 14.3542C3.12597 14.0109 2.99347 13.7792 2.90264 13.5942C2.81347 13.4134 2.78597 13.3167 2.77764 13.2476C2.74146 12.9738 2.8155 12.6968 2.98347 12.4776C3.0368 12.4084 3.1318 12.3217 3.38347 12.1634C3.94347 11.8117 4.32347 11.1984 4.32347 10.5001C4.32347 9.80175 3.94347 9.18841 3.38347 8.83675C3.1318 8.67841 3.0368 8.59175 2.98347 8.52258C2.8155 8.30335 2.74146 8.02639 2.77764 7.75258C2.78597 7.68341 2.8143 7.58591 2.90264 7.40591C2.99347 7.22008 3.12597 6.98925 3.3243 6.64591C3.52264 6.30258 3.6568 6.07175 3.7718 5.90008C3.8843 5.73341 3.9543 5.66091 4.0093 5.61841C4.22854 5.45044 4.5055 5.3764 4.7793 5.41258C4.86597 5.42341 4.98764 5.46258 5.2518 5.60175C5.83514 5.91008 6.5568 5.93341 7.1618 5.58341C7.7668 5.23425 8.10764 4.59841 8.13264 3.93841C8.14347 3.64091 8.17097 3.51508 8.20431 3.43508C8.31014 3.17925 8.51264 2.97675 8.76847 2.87091Z" fill="#94949E"/>
</svg>
