<svg width="20" height="21" viewBox="0 0 20 21" fill="none" xmlns="http://www.w3.org/2000/svg">
<path d="M12.2948 8.83333C13.0998 8.83333 13.7532 9.48667 13.7532 10.2917V14.2492C13.7532 15.2439 13.358 16.198 12.6546 16.9014C11.9512 17.6048 10.9971 18 10.0023 18C9.00755 18 8.05352 17.6048 7.3501 16.9014C6.64668 16.198 6.2515 15.2439 6.2515 14.2492V10.2917C6.2515 9.48667 6.904 8.83333 7.70984 8.83333H12.2948ZM12.2948 10.0833H7.70984C7.65458 10.0833 7.60159 10.1053 7.56252 10.1444C7.52345 10.1834 7.5015 10.2364 7.5015 10.2917V14.2492C7.5015 14.9124 7.76498 15.5485 8.23398 16.0175C8.70298 16.4865 9.33908 16.75 10.0023 16.75C10.6656 16.75 11.3017 16.4865 11.7707 16.0175C12.2397 15.5485 12.5032 14.9124 12.5032 14.2492V10.2917C12.5032 10.2364 12.4812 10.1834 12.4422 10.1444C12.4031 10.1053 12.3501 10.0833 12.2948 10.0833ZM3.12484 8.83333H5.94234C5.64834 9.18841 5.46879 9.62421 5.42734 10.0833H3.12484C3.06958 10.0833 3.01659 10.1053 2.97752 10.1444C2.93845 10.1834 2.9165 10.2364 2.9165 10.2917V12.9992C2.91645 13.3141 2.98776 13.6249 3.12506 13.9083C3.26237 14.1917 3.46211 14.4403 3.70928 14.6354C3.95645 14.8305 4.24462 14.9671 4.55214 15.0348C4.85967 15.1026 5.17855 15.0998 5.48484 15.0267C5.55567 15.4467 5.68484 15.8475 5.86234 16.22C5.3684 16.3521 4.8507 16.3689 4.34925 16.269C3.8478 16.1691 3.37604 15.9552 2.97046 15.6439C2.56487 15.3326 2.23633 14.9321 2.01022 14.4735C1.78412 14.0149 1.66651 13.5105 1.6665 12.9992V10.2917C1.6665 9.48667 2.31984 8.83333 3.12484 8.83333ZM14.0623 8.83333H16.8748C17.6798 8.83333 18.3332 9.48667 18.3332 10.2917V13C18.3333 13.511 18.2159 14.0151 17.9902 14.4735C17.7644 14.9319 17.4363 15.3323 17.0311 15.6436C16.626 15.955 16.1547 16.1691 15.6537 16.2693C15.1526 16.3695 14.6352 16.3532 14.1415 16.2217C14.3198 15.8483 14.449 15.4475 14.5207 15.0275C14.8266 15.0998 15.1449 15.1019 15.4517 15.0338C15.7586 14.9656 16.046 14.8288 16.2925 14.6338C16.539 14.4388 16.7382 14.1905 16.8751 13.9075C17.012 13.6246 17.0832 13.3143 17.0832 13V10.2917C17.0832 10.2364 17.0612 10.1834 17.0222 10.1444C16.9831 10.1053 16.9301 10.0833 16.8748 10.0833H14.5773C14.5359 9.62421 14.3563 9.18841 14.0623 8.83333ZM9.99984 3C10.6629 3 11.2988 3.26339 11.7676 3.73223C12.2364 4.20107 12.4998 4.83696 12.4998 5.5C12.4998 6.16304 12.2364 6.79893 11.7676 7.26777C11.2988 7.73661 10.6629 8 9.99984 8C9.3368 8 8.70091 7.73661 8.23207 7.26777C7.76323 6.79893 7.49984 6.16304 7.49984 5.5C7.49984 4.83696 7.76323 4.20107 8.23207 3.73223C8.70091 3.26339 9.3368 3 9.99984 3ZM15.4165 3.83333C15.969 3.83333 16.4989 4.05283 16.8896 4.44353C17.2803 4.83423 17.4998 5.36413 17.4998 5.91667C17.4998 6.4692 17.2803 6.9991 16.8896 7.38981C16.4989 7.78051 15.969 8 15.4165 8C14.864 8 14.3341 7.78051 13.9434 7.38981C13.5527 6.9991 13.3332 6.4692 13.3332 5.91667C13.3332 5.36413 13.5527 4.83423 13.9434 4.44353C14.3341 4.05283 14.864 3.83333 15.4165 3.83333ZM4.58317 3.83333C5.1357 3.83333 5.66561 4.05283 6.05631 4.44353C6.44701 4.83423 6.6665 5.36413 6.6665 5.91667C6.6665 6.4692 6.44701 6.9991 6.05631 7.38981C5.66561 7.78051 5.1357 8 4.58317 8C4.03064 8 3.50073 7.78051 3.11003 7.38981C2.71933 6.9991 2.49984 6.4692 2.49984 5.91667C2.49984 5.36413 2.71933 4.83423 3.11003 4.44353C3.50073 4.05283 4.03064 3.83333 4.58317 3.83333ZM9.99984 4.25C9.66832 4.25 9.35037 4.3817 9.11595 4.61612C8.88153 4.85054 8.74984 5.16848 8.74984 5.5C8.74984 5.83152 8.88153 6.14946 9.11595 6.38388C9.35037 6.6183 9.66832 6.75 9.99984 6.75C10.3314 6.75 10.6493 6.6183 10.8837 6.38388C11.1181 6.14946 11.2498 5.83152 11.2498 5.5C11.2498 5.16848 11.1181 4.85054 10.8837 4.61612C10.6493 4.3817 10.3314 4.25 9.99984 4.25ZM15.4165 5.08333C15.1955 5.08333 14.9835 5.17113 14.8272 5.32741C14.671 5.48369 14.5832 5.69565 14.5832 5.91667C14.5832 6.13768 14.671 6.34964 14.8272 6.50592C14.9835 6.6622 15.1955 6.75 15.4165 6.75C15.6375 6.75 15.8495 6.6622 16.0058 6.50592C16.162 6.34964 16.2498 6.13768 16.2498 5.91667C16.2498 5.69565 16.162 5.48369 16.0058 5.32741C15.8495 5.17113 15.6375 5.08333 15.4165 5.08333ZM4.58317 5.08333C4.36216 5.08333 4.1502 5.17113 3.99392 5.32741C3.83763 5.48369 3.74984 5.69565 3.74984 5.91667C3.74984 6.13768 3.83763 6.34964 3.99392 6.50592C4.1502 6.6622 4.36216 6.75 4.58317 6.75C4.80418 6.75 5.01615 6.6622 5.17243 6.50592C5.32871 6.34964 5.4165 6.13768 5.4165 5.91667C5.4165 5.69565 5.32871 5.48369 5.17243 5.32741C5.01615 5.17113 4.80418 5.08333 4.58317 5.08333Z" fill="#94949E"/>
</svg>
