<svg width="42" height="42" viewBox="0 0 42 42" fill="none" xmlns="http://www.w3.org/2000/svg">
<rect width="42" height="42" rx="6" fill="#F0B90B"/>
<path d="M24.6 16.8C24.6 16.0044 24.284 15.2413 23.7213 14.6787C23.1587 14.1161 22.3957 13.8 21.6 13.8H14.4C13.6044 13.8 12.8413 14.1161 12.2787 14.6787C11.7161 15.2413 11.4 16.0044 11.4 16.8V25.2C11.4 25.9957 11.7161 26.7588 12.2787 27.3214C12.8413 27.884 13.6044 28.2 14.4 28.2H21.6C22.3957 28.2 23.1587 27.884 23.7213 27.3214C24.284 26.7588 24.6 25.9957 24.6 25.2V16.8ZM25.8 18.516V23.4984L29.1168 26.3184C29.2478 26.4299 29.4079 26.5014 29.5782 26.5247C29.7486 26.548 29.922 26.522 30.078 26.4497C30.234 26.3775 30.3661 26.2622 30.4586 26.1173C30.5511 25.9723 30.6002 25.804 30.6 25.632V16.4316C30.5997 16.2607 30.5508 16.0934 30.4589 15.9493C30.367 15.8052 30.236 15.6903 30.0812 15.6179C29.9263 15.5455 29.7541 15.5187 29.5846 15.5406C29.4151 15.5625 29.2554 15.6323 29.124 15.7416L25.8 18.516Z" fill="white"/>
</svg>
