<svg width="20" height="21" viewBox="0 0 20 21" fill="none" xmlns="http://www.w3.org/2000/svg">
<path d="M15.8332 10.4998C15.8332 10.7209 15.7454 10.9328 15.5891 11.0891C15.4328 11.2454 15.2209 11.3332 14.9998 11.3332C14.7788 11.3332 14.5669 11.2454 14.4106 11.0891C14.2543 10.9328 14.1665 10.7209 14.1665 10.4998C14.1665 10.2788 14.2543 10.0669 14.4106 9.91058C14.5669 9.7543 14.7788 9.6665 14.9998 9.6665C15.2209 9.6665 15.4328 9.7543 15.5891 9.91058C15.7454 10.0669 15.8332 10.2788 15.8332 10.4998Z" fill="#94949E"/>
<path fill-rule="evenodd" clip-rule="evenodd" d="M8.2865 3.20825H10.8798C12.4115 3.20825 13.6248 3.20825 14.574 3.33575C15.5507 3.46742 16.3415 3.74409 16.9657 4.36742C17.7357 5.13825 17.9815 6.16992 18.0707 7.50909C18.5515 7.71992 18.9148 8.16742 18.954 8.73408C18.9582 8.78492 18.9582 8.83909 18.9582 8.88909V12.1108C18.9582 12.1608 18.9582 12.2149 18.9548 12.2649C18.9148 12.8316 18.5515 13.2799 18.0707 13.4916C17.9815 14.8299 17.7357 15.8616 16.9657 16.6324C16.3415 17.2558 15.5507 17.5324 14.574 17.6641C13.624 17.7916 12.4115 17.7916 10.8798 17.7916H8.2865C6.75484 17.7916 5.5415 17.7916 4.59234 17.6641C3.61567 17.5324 2.82484 17.2558 2.20067 16.6324C1.57734 16.0083 1.30067 15.2174 1.169 14.2408C1.0415 13.2908 1.0415 12.0783 1.0415 10.5466V10.4533C1.0415 8.92159 1.0415 7.70825 1.169 6.75909C1.30067 5.78242 1.57734 4.99159 2.20067 4.36742C2.82484 3.74409 3.61567 3.46742 4.59234 3.33575C5.54234 3.20825 6.75484 3.20825 8.2865 3.20825ZM16.8065 13.6249H15.1915C13.404 13.6249 11.874 12.2683 11.874 10.4999C11.874 8.73159 13.404 7.37492 15.1907 7.37492H16.8057C16.7107 6.25742 16.4965 5.66659 16.0807 5.25159C15.7282 4.89909 15.2448 4.68742 14.4065 4.57492C13.5507 4.45992 12.4215 4.45825 10.8323 4.45825H8.33234C6.74317 4.45825 5.61484 4.45992 4.75734 4.57492C3.91984 4.68742 3.4365 4.89909 3.084 5.25159C2.7315 5.60409 2.51984 6.08742 2.40734 6.92575C2.29234 7.78242 2.29067 8.91075 2.29067 10.4999C2.29067 12.0891 2.29234 13.2174 2.40734 14.0749C2.51984 14.9124 2.7315 15.3958 3.084 15.7483C3.4365 16.1008 3.91984 16.3124 4.75817 16.4249C5.61484 16.5399 6.74317 16.5416 8.33234 16.5416H10.8323C12.4215 16.5416 13.5507 16.5399 14.4073 16.4249C15.2448 16.3124 15.7282 16.1008 16.0807 15.7483C16.4965 15.3333 16.7115 14.7433 16.8065 13.6249ZM4.37484 7.16659C4.37484 7.00082 4.44069 6.84185 4.5579 6.72464C4.67511 6.60743 4.83408 6.54159 4.99984 6.54159H8.33317C8.49893 6.54159 8.6579 6.60743 8.77511 6.72464C8.89232 6.84185 8.95817 7.00082 8.95817 7.16659C8.95817 7.33235 8.89232 7.49132 8.77511 7.60853C8.6579 7.72574 8.49893 7.79158 8.33317 7.79158H4.99984C4.83408 7.79158 4.67511 7.72574 4.5579 7.60853C4.44069 7.49132 4.37484 7.33235 4.37484 7.16659ZM17.4365 8.62492H15.1915C14.0048 8.62492 13.124 9.50742 13.124 10.4999C13.124 11.4924 14.0048 12.3749 15.1907 12.3749H17.4557C17.6273 12.3641 17.7015 12.2483 17.7073 12.1783V8.82159C17.7015 8.75159 17.6273 8.63575 17.4557 8.62575H17.4357L17.4365 8.62492Z" fill="#94949E"/>
</svg>
