<svg width="43" height="42" viewBox="0 0 43 42" fill="none" xmlns="http://www.w3.org/2000/svg">
<rect x="0.84375" width="42" height="42" rx="6" fill="#F0B90B"/>
<g clip-path="url(#clip0_24_539)">
<path d="M22 11C27.523 11 32 15.477 32 21C32 26.523 27.523 31 22 31C16.477 31 12 26.523 12 21C12 15.477 16.477 11 22 11ZM24 22.4L22.436 23.651C22.3811 23.6949 22.3361 23.75 22.3039 23.8125C22.2717 23.875 22.2531 23.9436 22.2492 24.0138C22.2453 24.084 22.2563 24.1543 22.2814 24.22C22.3066 24.2856 22.3453 24.3453 22.395 24.395L23.634 25.634C23.8739 25.8742 24.0487 26.1715 24.142 26.498L24.317 27.111C24.3896 27.3682 24.5185 27.606 24.6944 27.8072C24.8703 28.0083 25.0888 28.1678 25.334 28.274C26.2906 27.8345 27.1513 27.211 27.867 26.439L27.633 24.562C27.5921 24.2354 27.4711 23.924 27.281 23.6554C27.0909 23.3868 26.8374 23.1692 26.543 23.022L25.073 22.286C24.902 22.2004 24.71 22.1657 24.5198 22.1859C24.3296 22.2061 24.1492 22.2804 24 22.4ZM22 13C20.776 12.999 19.5682 13.2792 18.4698 13.8192C17.3714 14.3591 16.4118 15.1442 15.665 16.114L15.5 16.335V18.02C15.4999 18.6305 15.686 19.2265 16.0335 19.7284C16.3811 20.2304 16.8735 20.6143 17.445 20.829L17.623 20.889L18.913 21.284C20.286 21.704 21.623 20.587 21.49 19.188L21.471 19.043L21.296 17.994C21.2573 17.7616 21.3019 17.5231 21.4219 17.3204C21.542 17.1177 21.7297 16.9638 21.952 16.886L22.06 16.856L22.672 16.716C23.0192 16.6366 23.3471 16.4885 23.6361 16.2804C23.9252 16.0723 24.1696 15.8083 24.355 15.5042C24.5404 15.2 24.663 14.8618 24.7155 14.5096C24.7681 14.1573 24.7496 13.798 24.661 13.453C23.8061 13.1521 22.9063 12.9989 22 13Z" fill="white"/>
</g>
<defs>
<clipPath id="clip0_24_539">
<rect width="24" height="24" fill="white" transform="translate(10 9)"/>
</clipPath>
</defs>
</svg>
